<svg xmlns="http://www.w3.org/2000/svg" width="64" height="80" shape-rendering="crispEdges">
<rect width="64" height="80" fill="#06040e"/>
<rect x="8" y="4" width="48" height="12" fill="#100c10"/>
<rect x="8" y="8" width="48" height="8" fill="#181418"/>
<rect x="8" y="16" width="4" height="24" fill="#100c10"/>
<rect x="52" y="16" width="4" height="24" fill="#100c10"/>
<rect x="8" y="16" width="48" height="40" fill="#c09060"/>
<rect x="12" y="16" width="40" height="36" fill="#c89868"/>
<rect x="8" y="40" width="8" height="16" fill="#9a7040"/>
<rect x="48" y="40" width="8" height="16" fill="#9a7040"/>
<rect x="12" y="20" width="40" height="8" fill="#a07840"/>
<rect x="12" y="24" width="16" height="4" fill="#180c10"/>
<rect x="36" y="24" width="16" height="4" fill="#180c10"/>
<rect x="12" y="28" width="16" height="8" fill="#d8d4c8"/>
<rect x="36" y="28" width="16" height="8" fill="#d8d4c8"/>
<rect x="16" y="28" width="12" height="8" fill="#404848"/>
<rect x="40" y="28" width="12" height="8" fill="#404848"/>
<rect x="20" y="32" width="4" height="4" fill="#080808"/>
<rect x="44" y="32" width="4" height="4" fill="#080808"/>
<rect x="24" y="36" width="16" height="8" fill="#a07840"/>
<rect x="20" y="40" width="24" height="4" fill="#b08850"/>
<rect x="16" y="48" width="32" height="4" fill="#7a5038"/>
<rect x="20" y="48" width="24" height="4" fill="#604030"/>
<rect x="16" y="52" width="32" height="4" fill="#c09060"/>
<rect x="24" y="52" width="16" height="4" fill="#d0a870"/>
<rect x="20" y="56" width="24" height="8" fill="#c09060"/>
<rect x="16" y="56" width="4" height="8" fill="#9a7040"/>
<rect x="44" y="56" width="4" height="8" fill="#9a7040"/>
<rect x="0" y="60" width="64" height="20" fill="#1a1428"/>
<rect x="8" y="60" width="48" height="20" fill="#221e30"/>
<rect x="24" y="60" width="16" height="20" fill="#181428"/>
<rect x="20" y="60" width="8" height="12" fill="#2a2038"/>
<rect x="36" y="60" width="8" height="12" fill="#2a2038"/>
</svg>